<svg width="184" height="76" viewBox="0 0 184 76" fill="none" xmlns="http://www.w3.org/2000/svg">
<mask id="mask0_1601_4824" style="mask-type:alpha" maskUnits="userSpaceOnUse" x="0" y="0" width="184" height="37">
<rect width="184" height="37" fill="white"/>
</mask>
<g mask="url(#mask0_1601_4824)">
<path d="M1.2 55V54.2L5.45 52.15V24.85L1.2 22.8V22H17.2C19.6 22 21.7333 22.2833 23.6 22.85C25.5 23.3833 26.9833 24.2 28.05 25.3C29.15 26.3667 29.7 27.7333 29.7 29.4C29.7 31.1 29.05 32.6667 27.75 34.1C26.4833 35.5333 24.65 36.5333 22.25 37.1C25.4833 37.5333 28.0167 38.4833 29.85 39.95C31.7167 41.3833 32.65 43.2 32.65 45.4C32.65 47.2333 32.0333 48.8833 30.8 50.35C29.5667 51.7833 27.8667 52.9167 25.7 53.75C23.5667 54.5833 21.1333 55 18.4 55H1.2ZM14.7 24.75H13V36.75H15C17.2 36.75 18.9167 36.2333 20.15 35.2C21.3833 34.1333 22 32.7 22 30.9C22 26.8 19.5667 24.75 14.7 24.75ZM16.45 39.2H13V52.25H16.8C19.2667 52.25 21.1833 51.6333 22.55 50.4C23.95 49.1667 24.65 47.5833 24.65 45.65C24.65 43.45 23.9333 41.8333 22.5 40.8C21.1 39.7333 19.0833 39.2 16.45 39.2ZM34.8621 55V54.2L37.9121 52.5L50.9621 21.75H55.3621L68.2621 52.4L71.6621 54.2V55H55.8621V54.2L60.2121 52.4L56.8121 44.1H44.9621L41.5621 52.4L45.7121 54.2V55H34.8621ZM46.1121 41.35H55.6621L50.9121 29.7L46.1121 41.35ZM74.8328 55V54.2L79.0828 52.15V24.85L74.8328 22.8V22H91.8828C95.8495 22 99.2161 22.65 101.983 23.95C104.749 25.25 106.849 27.0333 108.283 29.3C109.749 31.5667 110.483 34.1333 110.483 37C110.483 39.6 109.999 42 109.033 44.2C108.099 46.4 106.783 48.3 105.083 49.9C103.383 51.5 101.383 52.75 99.0828 53.65C96.7828 54.55 94.2661 55 91.5328 55H74.8328ZM89.8328 24.75H86.6328V52.25H90.5328C94.3995 52.25 97.3828 51.0167 99.4828 48.55C101.583 46.05 102.633 42.7167 102.633 38.55C102.633 34.35 101.549 31 99.3828 28.5C97.2495 26 94.0661 24.75 89.8328 24.75ZM114.921 55V54.2L119.171 52.15V24.85L114.921 22.8V22H142.171V30.65H141.371L137.671 24.75H126.721V36.6H134.421L137.221 32.3H138.021V43.55H137.221L134.421 39.35H126.721V52.25H138.871L142.771 44.8H143.571V55H114.921ZM148.854 55V54.2L153.104 52.15V24.9L148.854 22.8V22H158.354L177.754 43.9V24.8L172.054 22.8V22H185.454V22.8L181.254 24.85V55.25H178.154L156.604 31.15V52.15L162.304 54.2V55H148.854Z" fill="#1D1C4A"/>
</g>
<mask id="mask1_1601_4824" style="mask-type:alpha" maskUnits="userSpaceOnUse" x="0" y="39" width="184" height="37">
<rect y="39" width="184" height="37" fill="white"/>
</mask>
<g mask="url(#mask1_1601_4824)">
<path d="M1.2 57V56.2L5.45 54.15V26.85L1.2 24.8V24H17.2C19.6 24 21.7333 24.2833 23.6 24.85C25.5 25.3833 26.9833 26.2 28.05 27.3C29.15 28.3667 29.7 29.7333 29.7 31.4C29.7 33.1 29.05 34.6667 27.75 36.1C26.4833 37.5333 24.65 38.5333 22.25 39.1C25.4833 39.5333 28.0167 40.4833 29.85 41.95C31.7167 43.3833 32.65 45.2 32.65 47.4C32.65 49.2333 32.0333 50.8833 30.8 52.35C29.5667 53.7833 27.8667 54.9167 25.7 55.75C23.5667 56.5833 21.1333 57 18.4 57H1.2ZM14.7 26.75H13V38.75H15C17.2 38.75 18.9167 38.2333 20.15 37.2C21.3833 36.1333 22 34.7 22 32.9C22 28.8 19.5667 26.75 14.7 26.75ZM16.45 41.2H13V54.25H16.8C19.2667 54.25 21.1833 53.6333 22.55 52.4C23.95 51.1667 24.65 49.5833 24.65 47.65C24.65 45.45 23.9333 43.8333 22.5 42.8C21.1 41.7333 19.0833 41.2 16.45 41.2ZM34.8621 57V56.2L37.9121 54.5L50.9621 23.75H55.3621L68.2621 54.4L71.6621 56.2V57H55.8621V56.2L60.2121 54.4L56.8121 46.1H44.9621L41.5621 54.4L45.7121 56.2V57H34.8621ZM46.1121 43.35H55.6621L50.9121 31.7L46.1121 43.35ZM74.8328 57V56.2L79.0828 54.15V26.85L74.8328 24.8V24H91.8828C95.8495 24 99.2161 24.65 101.983 25.95C104.749 27.25 106.849 29.0333 108.283 31.3C109.749 33.5667 110.483 36.1333 110.483 39C110.483 41.6 109.999 44 109.033 46.2C108.099 48.4 106.783 50.3 105.083 51.9C103.383 53.5 101.383 54.75 99.0828 55.65C96.7828 56.55 94.2661 57 91.5328 57H74.8328ZM89.8328 26.75H86.6328V54.25H90.5328C94.3995 54.25 97.3828 53.0167 99.4828 50.55C101.583 48.05 102.633 44.7167 102.633 40.55C102.633 36.35 101.549 33 99.3828 30.5C97.2495 28 94.0661 26.75 89.8328 26.75ZM114.921 57V56.2L119.171 54.15V26.85L114.921 24.8V24H142.171V32.65H141.371L137.671 26.75H126.721V38.6H134.421L137.221 34.3H138.021V45.55H137.221L134.421 41.35H126.721V54.25H138.871L142.771 46.8H143.571V57H114.921ZM148.854 57V56.2L153.104 54.15V26.9L148.854 24.8V24H158.354L177.754 45.9V26.8L172.054 24.8V24H185.454V24.8L181.254 26.85V57.25H178.154L156.604 33.15V54.15L162.304 56.2V57H148.854Z" fill="black"/>
</g>
</svg>
