<svg width="309" height="365" viewBox="0 0 309 365" fill="none" xmlns="http://www.w3.org/2000/svg">
<g opacity="0.05" clip-path="url(#clip0_9_3490)">
<path d="M257.331 128.888C241.435 58.9453 180.425 27.4561 126.833 27.4561C126.833 27.4561 126.833 27.4561 126.681 27.4561C73.2406 27.4561 12.0789 58.7939 -3.81713 128.736C-21.5298 206.854 26.3096 273.011 69.6072 314.644C85.6546 330.086 106.244 337.806 126.833 337.806C147.422 337.806 168.011 330.086 183.907 314.644C227.205 273.011 275.044 207.005 257.331 128.888ZM126.833 204.734C100.491 204.734 79.1448 183.388 79.1448 157.046C79.1448 130.704 100.491 109.358 126.833 109.358C153.175 109.358 174.521 130.704 174.521 157.046C174.521 183.388 153.175 204.734 126.833 204.734Z" fill="#101010"/>
</g>
<defs>
<clipPath id="clip0_9_3490">
<rect width="363.337" height="363.337" fill="white" transform="translate(-54.8369 0.962891)"/>
</clipPath>
</defs>
</svg>
