<svg width="132" height="33" viewBox="0 0 132 33" fill="none" xmlns="http://www.w3.org/2000/svg">
<rect x="3.2002" y="3.71094" width="25.6" height="25.6" rx="12.8" fill="url(#paint0_linear_9_3516)"/>
<path d="M21.7773 18.1066L21.5313 19.2226C21.1053 21.1426 19.5993 22.5106 17.4273 22.5106H14.5713C12.3993 22.5106 10.8933 21.1426 10.4673 19.2226L10.2213 18.1066C10.1013 17.5606 10.4253 16.9426 10.9473 16.7326L11.7993 16.3906L15.1053 15.0646C15.3933 14.9506 15.6993 14.8906 15.9993 14.8906C16.2993 14.8906 16.6053 14.9506 16.8933 15.0646L20.1993 16.3906L21.0513 16.7326C21.5733 16.9426 21.8973 17.5606 21.7773 18.1066Z" fill="url(#paint1_linear_9_3516)"/>
<path d="M20.1998 14.1105V14.9745C20.1998 15.1845 19.9838 15.3345 19.7858 15.2505L17.2238 14.2245C16.4378 13.9185 15.5618 13.9185 14.7698 14.2305L12.2138 15.2565C12.0158 15.3405 11.7998 15.1905 11.7998 14.9805V14.1105C11.7998 13.1205 12.6098 12.3105 13.5998 12.3105H18.3998C19.3898 12.3105 20.1998 13.1205 20.1998 14.1105Z" fill="#FCFCFC"/>
<path d="M17.5 12.3107H14.5V11.1107C14.5 10.7807 14.77 10.5107 15.1 10.5107H16.9C17.23 10.5107 17.5 10.7807 17.5 11.1107V12.3107Z" fill="#FCFCFC"/>
<rect x="0.4" y="0.910742" width="31.2" height="31.2" rx="15.6" stroke="#DCDCDC" stroke-width="0.8"/>
<path d="M45.904 8.91074C47.092 8.91074 48.082 9.30674 48.874 10.0987C49.678 10.8907 50.08 11.8747 50.08 13.0507C50.08 14.2147 49.678 15.1987 48.874 16.0027C48.082 16.7947 47.092 17.1907 45.904 17.1907H43.33V21.5107H41.26V8.91074H45.904ZM45.904 15.2467C46.516 15.2467 47.02 15.0427 47.416 14.6347C47.812 14.2147 48.01 13.6867 48.01 13.0507C48.01 12.4147 47.812 11.8927 47.416 11.4847C47.02 11.0647 46.516 10.8547 45.904 10.8547H43.33V15.2467H45.904ZM52.6484 17.8387C52.7924 18.5227 53.1224 19.0507 53.6384 19.4227C54.1544 19.7827 54.7844 19.9627 55.5284 19.9627C56.5604 19.9627 57.3344 19.5907 57.8504 18.8467L59.4524 19.7827C58.5644 21.0907 57.2504 21.7447 55.5104 21.7447C54.0464 21.7447 52.8644 21.3007 51.9644 20.4127C51.0644 19.5127 50.6144 18.3787 50.6144 17.0107C50.6144 15.6667 51.0584 14.5447 51.9464 13.6447C52.8344 12.7327 53.9744 12.2767 55.3664 12.2767C56.6864 12.2767 57.7664 12.7387 58.6064 13.6627C59.4584 14.5867 59.8844 15.7087 59.8844 17.0287C59.8844 17.2327 59.8604 17.5027 59.8124 17.8387H52.6484ZM52.6304 16.2547H57.9224C57.7904 15.5227 57.4844 14.9707 57.0044 14.5987C56.5364 14.2267 55.9844 14.0407 55.3484 14.0407C54.6284 14.0407 54.0284 14.2387 53.5484 14.6347C53.0684 15.0307 52.7624 15.5707 52.6304 16.2547ZM62.9894 14.9947C62.9894 15.2947 63.1514 15.5347 63.4754 15.7147C63.8114 15.8827 64.2134 16.0327 64.6814 16.1647C65.1614 16.2847 65.6414 16.4287 66.1214 16.5967C66.6014 16.7647 67.0034 17.0527 67.3274 17.4607C67.6634 17.8567 67.8314 18.3607 67.8314 18.9727C67.8314 19.8367 67.4954 20.5147 66.8234 21.0067C66.1634 21.4987 65.3294 21.7447 64.3214 21.7447C63.4334 21.7447 62.6714 21.5587 62.0354 21.1867C61.3994 20.8147 60.9374 20.2987 60.6494 19.6387L62.3234 18.6667C62.6354 19.5307 63.3014 19.9627 64.3214 19.9627C65.3414 19.9627 65.8514 19.6267 65.8514 18.9547C65.8514 18.6667 65.6834 18.4327 65.3474 18.2527C65.0234 18.0727 64.6214 17.9227 64.1414 17.8027C63.6734 17.6707 63.1994 17.5207 62.7194 17.3527C62.2394 17.1847 61.8314 16.9087 61.4954 16.5247C61.1714 16.1287 61.0094 15.6307 61.0094 15.0307C61.0094 14.2027 61.3214 13.5367 61.9454 13.0327C62.5814 12.5287 63.3674 12.2767 64.3034 12.2767C65.0474 12.2767 65.7074 12.4447 66.2834 12.7807C66.8714 13.1047 67.3214 13.5607 67.6334 14.1487L65.9954 15.0667C65.6834 14.3827 65.1194 14.0407 64.3034 14.0407C63.9314 14.0407 63.6194 14.1247 63.3674 14.2927C63.1154 14.4487 62.9894 14.6827 62.9894 14.9947ZM70.8417 17.8387C70.9857 18.5227 71.3157 19.0507 71.8317 19.4227C72.3477 19.7827 72.9777 19.9627 73.7217 19.9627C74.7537 19.9627 75.5277 19.5907 76.0437 18.8467L77.6457 19.7827C76.7577 21.0907 75.4437 21.7447 73.7037 21.7447C72.2397 21.7447 71.0577 21.3007 70.1577 20.4127C69.2577 19.5127 68.8077 18.3787 68.8077 17.0107C68.8077 15.6667 69.2517 14.5447 70.1397 13.6447C71.0277 12.7327 72.1677 12.2767 73.5597 12.2767C74.8797 12.2767 75.9597 12.7387 76.7997 13.6627C77.6517 14.5867 78.0777 15.7087 78.0777 17.0287C78.0777 17.2327 78.0537 17.5027 78.0057 17.8387H70.8417ZM70.8237 16.2547H76.1157C75.9837 15.5227 75.6777 14.9707 75.1977 14.5987C74.7297 14.2267 74.1777 14.0407 73.5417 14.0407C72.8217 14.0407 72.2217 14.2387 71.7417 14.6347C71.2617 15.0307 70.9557 15.5707 70.8237 16.2547ZM79.7883 21.5107V8.37074H81.7323V21.5107H79.7883ZM91.1175 12.5107H93.0615V21.5107H91.1175V20.2147C90.3855 21.2347 89.3355 21.7447 87.9675 21.7447C86.7315 21.7447 85.6755 21.2887 84.7995 20.3767C83.9235 19.4527 83.4855 18.3307 83.4855 17.0107C83.4855 15.6787 83.9235 14.5567 84.7995 13.6447C85.6755 12.7327 86.7315 12.2767 87.9675 12.2767C89.3355 12.2767 90.3855 12.7807 91.1175 13.7887V12.5107ZM86.2395 19.0807C86.7795 19.6207 87.4575 19.8907 88.2735 19.8907C89.0895 19.8907 89.7675 19.6207 90.3075 19.0807C90.8475 18.5287 91.1175 17.8387 91.1175 17.0107C91.1175 16.1827 90.8475 15.4987 90.3075 14.9587C89.7675 14.4067 89.0895 14.1307 88.2735 14.1307C87.4575 14.1307 86.7795 14.4067 86.2395 14.9587C85.6995 15.4987 85.4295 16.1827 85.4295 17.0107C85.4295 17.8387 85.6995 18.5287 86.2395 19.0807ZM100.061 12.2767C101.093 12.2767 101.927 12.6067 102.563 13.2667C103.199 13.9267 103.517 14.8327 103.517 15.9847V21.5107H101.573V16.1827C101.573 15.5107 101.393 14.9947 101.033 14.6347C100.673 14.2747 100.181 14.0947 99.5574 14.0947C98.8734 14.0947 98.3214 14.3107 97.9014 14.7427C97.4814 15.1627 97.2714 15.8107 97.2714 16.6867V21.5107H95.3274V12.5107H97.2714V13.6627C97.8594 12.7387 98.7894 12.2767 100.061 12.2767ZM109.859 21.7447C108.503 21.7447 107.369 21.2887 106.457 20.3767C105.557 19.4647 105.107 18.3427 105.107 17.0107C105.107 15.6667 105.557 14.5447 106.457 13.6447C107.369 12.7327 108.503 12.2767 109.859 12.2767C110.735 12.2767 111.533 12.4867 112.253 12.9067C112.973 13.3267 113.513 13.8907 113.873 14.5987L112.199 15.5707C111.995 15.1387 111.683 14.8027 111.263 14.5627C110.855 14.3107 110.381 14.1847 109.841 14.1847C109.049 14.1847 108.383 14.4547 107.843 14.9947C107.315 15.5347 107.051 16.2067 107.051 17.0107C107.051 17.8147 107.315 18.4867 107.843 19.0267C108.383 19.5667 109.049 19.8367 109.841 19.8367C110.369 19.8367 110.843 19.7107 111.263 19.4587C111.695 19.2067 112.019 18.8707 112.235 18.4507L113.909 19.4047C113.525 20.1247 112.973 20.6947 112.253 21.1147C111.533 21.5347 110.735 21.7447 109.859 21.7447ZM122.301 12.5107H124.245V21.5107H122.301V20.2147C121.569 21.2347 120.519 21.7447 119.151 21.7447C117.915 21.7447 116.859 21.2887 115.983 20.3767C115.107 19.4527 114.669 18.3307 114.669 17.0107C114.669 15.6787 115.107 14.5567 115.983 13.6447C116.859 12.7327 117.915 12.2767 119.151 12.2767C120.519 12.2767 121.569 12.7807 122.301 13.7887V12.5107ZM117.423 19.0807C117.963 19.6207 118.641 19.8907 119.457 19.8907C120.273 19.8907 120.951 19.6207 121.491 19.0807C122.031 18.5287 122.301 17.8387 122.301 17.0107C122.301 16.1827 122.031 15.4987 121.491 14.9587C120.951 14.4067 120.273 14.1307 119.457 14.1307C118.641 14.1307 117.963 14.4067 117.423 14.9587C116.883 15.4987 116.613 16.1827 116.613 17.0107C116.613 17.8387 116.883 18.5287 117.423 19.0807ZM128.455 14.0227C128.947 12.9067 129.871 12.3487 131.227 12.3487V14.4547C130.483 14.4067 129.835 14.5867 129.283 14.9947C128.731 15.3907 128.455 16.0507 128.455 16.9747V21.5107H126.511V12.5107H128.455V14.0227Z" fill="#121212"/>
<defs>
<linearGradient id="paint0_linear_9_3516" x1="3.2002" y1="3.71094" x2="29.5235" y2="4.47766" gradientUnits="userSpaceOnUse">
<stop stop-color="#3857F6"/>
<stop offset="1" stop-color="#0B30EF"/>
</linearGradient>
<linearGradient id="paint1_linear_9_3516" x1="10.1963" y1="14.8906" x2="22.1168" y2="15.4195" gradientUnits="userSpaceOnUse">
<stop stop-color="white"/>
<stop offset="1" stop-color="#8F9BDD"/>
</linearGradient>
</defs>
</svg>
