<svg width="283" height="365" viewBox="0 0 283 365" fill="none" xmlns="http://www.w3.org/2000/svg">
<g opacity="0.05">
<path d="M236.018 188.407V250.023C236.018 255.473 235.412 260.621 234.05 265.314C228.448 287.568 209.979 301.496 184.545 301.496H143.367L97.6471 331.925C90.8345 336.619 81.7511 331.623 81.7511 323.448V301.496C66.3092 301.496 53.4411 296.349 44.509 287.417C35.4256 278.333 30.2783 265.465 30.2783 250.023V188.407C30.2783 159.643 48.1424 139.811 75.6955 137.237C77.6635 137.086 79.6316 136.935 81.7511 136.935H184.545C215.429 136.935 236.018 157.524 236.018 188.407Z" fill="#101010"/>
<path d="M268.718 236.853C287.945 236.853 304.143 230.495 315.346 219.14C326.701 207.937 333.059 191.739 333.059 172.512V95.3029C333.059 59.7261 304.295 30.9619 268.718 30.9619H140.036C104.459 30.9619 75.6953 59.7261 75.6953 95.3029V106.657C75.6953 110.896 79.0259 114.227 83.2648 114.227H184.545C225.572 114.227 258.726 147.381 258.726 188.408V229.283C258.726 233.522 262.057 236.853 266.296 236.853H268.718V236.853Z" fill="#101010"/>
</g>
</svg>
