<svg width="23" height="23" viewBox="0 0 23 23" fill="none" xmlns="http://www.w3.org/2000/svg">
<g id="search-normal">
<g id="vuesax/bold/search-normal">
<g id="search-normal_2">
<path id="Vector" d="M11.3372 20.0221C16.1467 20.0221 20.0456 16.1233 20.0456 11.3138C20.0456 6.50432 16.1467 2.60547 11.3372 2.60547C6.52776 2.60547 2.62891 6.50432 2.62891 11.3138C2.62891 16.1233 6.52776 20.0221 11.3372 20.0221Z" fill="#FCFCFC"/>
<path id="Vector_2" d="M20.3203 20.9385C20.1553 20.9385 19.9903 20.8743 19.8711 20.7552L18.1661 19.0502C17.9186 18.8027 17.9186 18.3993 18.1661 18.1427C18.4136 17.8952 18.8169 17.8952 19.0736 18.1427L20.7786 19.8477C21.0261 20.0952 21.0261 20.4985 20.7786 20.7552C20.6503 20.8743 20.4853 20.9385 20.3203 20.9385Z" fill="#FCFCFC"/>
</g>
</g>
</g>
</svg>
