<svg aria-hidden="true" style="position: absolute; width: 0; height: 0; overflow: hidden;" version="1.1" xmlns="http://www.w3.org/2000/svg" xmlns:xlink="http://www.w3.org/1999/xlink">
<defs>
<symbol id="icon-book-square" viewBox="0 0 33 32">
<path fill="#fcfcfc" style="fill: var(--color1, #fcfcfc)" d="M21.626 2.666h-11.173c-4.853 0-7.747 2.893-7.747 7.747v11.16c0 4.867 2.893 7.76 7.747 7.76h11.16c4.853 0 7.747-2.893 7.747-7.747v-11.173c0.013-4.853-2.88-7.747-7.733-7.747zM15.373 23c0 0.48-0.48 0.8-0.92 0.613-1.613-0.693-3.72-1.333-5.187-1.52l-0.253-0.027c-0.813-0.107-1.48-0.867-1.48-1.693v-10.267c0-1.027 0.827-1.787 1.84-1.707 1.667 0.133 4.133 0.933 5.68 1.813 0.213 0.12 0.32 0.347 0.32 0.573v12.213zM24.546 20.36c0 0.827-0.667 1.587-1.48 1.693l-0.28 0.027c-1.453 0.2-3.547 0.827-5.16 1.507-0.44 0.187-0.92-0.133-0.92-0.613v-12.2c0-0.24 0.12-0.467 0.333-0.587 1.547-0.867 3.96-1.64 5.6-1.787h0.053c1.027 0 1.853 0.827 1.853 1.853v10.107z"></path>
</symbol>
<symbol id="icon-arrow-down" viewBox="0 0 33 32">
<path fill="none" stroke="#fcfcfc" style="stroke: var(--color1, #fcfcfc)" stroke-linejoin="round" stroke-linecap="round" stroke-miterlimit="10" stroke-width="2" d="M19.276 7.907l8.093 8.093-8.093 8.093"></path>
<path fill="none" stroke="#fcfcfc" style="stroke: var(--color1, #fcfcfc)" stroke-linejoin="round" stroke-linecap="round" stroke-miterlimit="10" stroke-width="2" d="M4.703 16h22.44"></path>
</symbol>
</defs>
</svg>
